<svg width="180" height="33" viewBox="0 0 180 33" fill="none" xmlns="http://www.w3.org/2000/svg">
<path d="M0.8 1.56H19.2V7.16H6.6V13.84H17.52V19.44H6.6V31H0.8V1.56ZM18.6909 31L31.9709 0.399998H32.2909L45.5709 31H38.8509L30.3709 9.48L34.5709 6.6L24.4109 31H18.6909ZM27.7709 20.36H36.6109L38.6509 25.24H25.9709L27.7709 20.36ZM65.5825 8.68C64.4625 8.06667 63.3158 7.56 62.1425 7.16C60.9958 6.76 59.9158 6.56 58.9025 6.56C57.6492 6.56 56.6625 6.81333 55.9425 7.32C55.2225 7.82667 54.8625 8.58667 54.8625 9.6C54.8625 10.2933 55.1292 10.92 55.6625 11.48C56.2225 12.0133 56.9292 12.4933 57.7825 12.92C58.6625 13.3467 59.5692 13.7333 60.5025 14.08C61.3558 14.4 62.1958 14.7867 63.0225 15.24C63.8758 15.6667 64.6358 16.2133 65.3025 16.88C65.9692 17.52 66.5025 18.3333 66.9025 19.32C67.3025 20.28 67.5025 21.4667 67.5025 22.88C67.5025 24.3733 67.1158 25.76 66.3425 27.04C65.5692 28.32 64.4358 29.36 62.9425 30.16C61.4492 30.9333 59.6092 31.32 57.4225 31.32C56.3025 31.32 55.1558 31.2133 53.9825 31C52.8358 30.76 51.7025 30.4133 50.5825 29.96C49.4625 29.48 48.3825 28.88 47.3425 28.16L49.9025 23.64C50.5958 24.1467 51.3425 24.6 52.1425 25C52.9692 25.3733 53.7958 25.6667 54.6225 25.88C55.4492 26.0933 56.2092 26.2 56.9025 26.2C57.5958 26.2 58.2892 26.1067 58.9825 25.92C59.7025 25.7067 60.2892 25.36 60.7425 24.88C61.2225 24.4 61.4625 23.7333 61.4625 22.88C61.4625 22.2933 61.2625 21.76 60.8625 21.28C60.4892 20.8 59.9692 20.36 59.3025 19.96C58.6625 19.56 57.9558 19.2133 57.1825 18.92C56.2758 18.5733 55.3425 18.1733 54.3825 17.72C53.4225 17.2667 52.5158 16.72 51.6625 16.08C50.8358 15.4133 50.1558 14.6 49.6225 13.64C49.1158 12.6533 48.8625 11.4533 48.8625 10.04C48.8625 8.33333 49.2358 6.85333 49.9825 5.6C50.7558 4.34666 51.8358 3.36 53.2225 2.64C54.6092 1.89333 56.2092 1.48 58.0225 1.4C60.3958 1.4 62.3158 1.68 63.7825 2.24C65.2758 2.8 66.6092 3.46667 67.7825 4.24L65.5825 8.68ZM97.9428 1.56V31H92.1428V19.04H78.9828V31H73.1828V1.56H78.9828V13.44H92.1428V1.56H97.9428ZM105.527 1.56H111.327V31H105.527V1.56ZM117.125 16.32C117.125 14.2933 117.512 12.3733 118.285 10.56C119.058 8.74666 120.125 7.14666 121.485 5.76C122.872 4.34667 124.472 3.24 126.285 2.44C128.098 1.64 130.045 1.24 132.125 1.24C134.178 1.24 136.112 1.64 137.925 2.44C139.738 3.24 141.338 4.34667 142.725 5.76C144.138 7.14666 145.232 8.74666 146.005 10.56C146.805 12.3733 147.205 14.2933 147.205 16.32C147.205 18.4 146.805 20.3467 146.005 22.16C145.232 23.9733 144.138 25.5733 142.725 26.96C141.338 28.32 139.738 29.3867 137.925 30.16C136.112 30.9333 134.178 31.32 132.125 31.32C130.045 31.32 128.098 30.9333 126.285 30.16C124.472 29.3867 122.872 28.32 121.485 26.96C120.125 25.5733 119.058 23.9733 118.285 22.16C117.512 20.3467 117.125 18.4 117.125 16.32ZM123.125 16.32C123.125 17.6267 123.352 18.8533 123.805 20C124.285 21.12 124.938 22.12 125.765 23C126.618 23.8533 127.592 24.52 128.685 25C129.805 25.48 131.018 25.72 132.325 25.72C133.578 25.72 134.738 25.48 135.805 25C136.898 24.52 137.845 23.8533 138.645 23C139.445 22.12 140.072 21.12 140.525 20C140.978 18.8533 141.205 17.6267 141.205 16.32C141.205 14.9867 140.965 13.7467 140.485 12.6C140.032 11.4533 139.392 10.4533 138.565 9.6C137.765 8.72 136.818 8.04 135.725 7.56C134.632 7.08 133.445 6.84 132.165 6.84C130.885 6.84 129.698 7.08 128.605 7.56C127.512 8.04 126.552 8.72 125.725 9.6C124.898 10.4533 124.258 11.4533 123.805 12.6C123.352 13.7467 123.125 14.9867 123.125 16.32ZM179.348 32.2L157.028 12.04L158.748 13L158.868 31H152.988V0.399998H153.228L175.068 20.48L173.788 19.92L173.668 1.56H179.508V32.2H179.348Z" fill="white"/>
</svg>
